<svg width="1024" height="1024" viewBox="0 0 1024 1024" fill="none" xmlns="http://www.w3.org/2000/svg">
  <rect width="1024" height="1024" rx="224" fill="#FFFFFF"/>
  <path d="M286 775V260H416L512 440L608 260H738V775H641V444L512 671L383 444V775H286Z" fill="#A3A3A3" fill-opacity="0.84" transform="translate(-34 24)"/>
  <path d="M286 775V260H416L512 440L608 260H738V775H641V444L512 671L383 444V775H286Z" fill="#27272A" fill-opacity="0.78" transform="translate(28 -18)"/>
  <path d="M286 775V260H416L512 440L608 260H738V775H641V444L512 671L383 444V775H286Z" fill="#111111"/>
</svg>
